<?xml version="1.0" encoding="UTF-8"?>
<svg id="svg10" xmlns="http://www.w3.org/2000/svg" xmlns:svg="http://www.w3.org/2000/svg" xmlns:sodipodi="http://sodipodi.sourceforge.net/DTD/sodipodi-0.dtd" xmlns:rdf="http://www.w3.org/1999/02/22-rdf-syntax-ns#" xmlns:inkscape="http://www.inkscape.org/namespaces/inkscape" xmlns:dc="http://purl.org/dc/elements/1.1/" xmlns:cc="http://creativecommons.org/ns#" version="1.1" viewBox="0 0 567 567">
  <defs>
    <style>
      .cls-1 {
        fill: none;
        stroke: #1f3768;
        stroke-miterlimit: 3.9;
        stroke-width: 5.7px;
      }
    </style>
  </defs>
  <sodipodi:namedview id="namedview12" bordercolor="#666666" borderopacity="1" gridtolerance="10" guidetolerance="10" inkscape:current-layer="svg10" inkscape:cx="52.159122" inkscape:cy="283.5" inkscape:pageopacity="0" inkscape:pageshadow="2" inkscape:window-height="1017" inkscape:window-maximized="1" inkscape:window-width="1920" inkscape:window-x="-8" inkscape:window-y="-8" inkscape:zoom="0.64513669" objecttolerance="10" pagecolor="#ffffff" showgrid="false"/>
  <path id="path2" class="cls-1" d="M407.5,455.1s-9.2,54.1-82.3,52c-59.7-1.6-197.9-16.4-274.9-25"/>
  <path id="path4" class="cls-1" d="M50.3,482.4h324.2c72.8,0,114.2-2.9,129.5-11.4,17-9.5,18.9-18.9,18.9-18.9"/>
  <path id="path6" class="cls-1" d="M270.9,114.3c-50.6,0-100.2,60.1-125.4,57.5-24-2.5-17.1-57.4-16.1-56.6,9.3,7,58.8,60.9,53.2,99.6,24.4,3.8,51.9-7.3,51.9-7.3l-56.7,1.4c-42.2,76.3-9.6,164.1,4.4,221.3,8.6,35.1-9.1,62.1-9.1,62.1-36.9-65.8,37.8-212.4,37.8-212.4,0,0,70.4,59.9,69,96.8-1.2,31.9,27.1,59,51.5,106.6-33.9-146.2-70.5-259-117.3-340.2,0,0-4.2,4.9-.3,14,8.9,21.1,41.9,20.4,48,20.5,11.3.2,12.5-62.6,37.9-65.9,42.2-5.6,83.3-8.8,83.3-8.8h-179.5l41.6,6.9v-15.1l-75.5.6"/>
  <path id="path8" class="cls-1" d="M171.6,122.3c-10.4,0-20-12-21.3-26.8-1.3-14.8,6-26.8,16.5-26.8s19.9,12,21.3,26.8c.9,12.5-4.4,15.7-14.6,16.2-13.9.7-27.9.9-27.9.9l20.3,25.2c26-21.5,104.9-23.3,104.9-23.3"/>
</svg>