<?xml version="1.0" encoding="UTF-8"?>
<svg id="svg10" xmlns="http://www.w3.org/2000/svg" xmlns:svg="http://www.w3.org/2000/svg" xmlns:sodipodi="http://sodipodi.sourceforge.net/DTD/sodipodi-0.dtd" xmlns:rdf="http://www.w3.org/1999/02/22-rdf-syntax-ns#" xmlns:inkscape="http://www.inkscape.org/namespaces/inkscape" xmlns:dc="http://purl.org/dc/elements/1.1/" xmlns:cc="http://creativecommons.org/ns#" version="1.1" viewBox="0 0 567 567">
  <defs>
    <style>
      .cls-1 {
        fill: none;
        stroke: #1f3768;
        stroke-miterlimit: 3.9;
        stroke-width: 5.7px;
      }
    </style>
  </defs>
  <sodipodi:namedview id="namedview12" bordercolor="#666666" borderopacity="1" gridtolerance="10" guidetolerance="10" inkscape:current-layer="svg10" inkscape:cx="52.159122" inkscape:cy="283.5" inkscape:pageopacity="0" inkscape:pageshadow="2" inkscape:window-height="1017" inkscape:window-maximized="1" inkscape:window-width="1920" inkscape:window-x="-8" inkscape:window-y="-8" inkscape:zoom="0.91236105" objecttolerance="10" pagecolor="#ffffff" showgrid="false"/>
  <path id="path2" class="cls-1" d="M275.4,221.8c57.4,13.6,99.9,60.6,99.6,94l121.3,65.8h12.1c9.5,0,14,11.7,14,11.7h-54.7c1.8-4.9,5-9.7,9.5-11.1"/>
  <path id="path4" class="cls-1" d="M178.7,268.7c-22.2,27.7-14.1,43-40.8,85.4-14.3,22.7-38.3,39.2-88,39.2,27.2-6.8,37.9-50.8,37.9-50.8,0,0,29.9,50.3,65.4,34.9,24.2-10.5,43.6-37.6,63.3-62.3"/>
  <path id="path6" class="cls-1" d="M304,266.5l109.2,60.1c-12-23.9-80.2-70-129.8-70.6-8.1,18.2-15,26.3-22,26.5-8.7.3-15-7.5-15-7.5,0,0,73.4-4.2,73.4,14.8,0,31.4-102.9,63.2-115.8,71.1-26.5,16.2-25,32.4-25,32.4h61.8s-65.5-19.8-8.6-74.8"/>
  <path id="path8" class="cls-1" d="M208.5,255.4c16.9,7.1,70.5,55.6,79.1,72.5,6.1,12.1,18.6,10.3,36.2,11.9,9.3,0,8.3,7.7,8.3,7.7v5.4c5.4,1.3,17.6,5.1,23,6.6,5.4,1.5,8,5.3,8,11.1v12c0,4.9-10.6,11.5-23.6,11.5h-29.2c-13,0-23.6-6.6-23.6-11.5v-12c0-5.8,2.6-9.6,8-11.1,5.4-1.5,27.2-7.1,27.2-7.1v-10.6c0-5-1-17-21-17-38.1,0-75.1-8.5-104-40.5-28.9-32-4.9-54.7,21.2-62.2,28.3-8,53-3.5,53,3,0,14.8-12.9,26.8-22.4,26.8s-22.4-17.4-22.4-32.2v-17.6c0-14.8,10-20.4,22.4-20.4s22.4,12,22.4,26.8"/>
</svg>