<?xml version="1.0" encoding="UTF-8"?>
<svg id="svg12" xmlns="http://www.w3.org/2000/svg" xmlns:svg="http://www.w3.org/2000/svg" xmlns:sodipodi="http://sodipodi.sourceforge.net/DTD/sodipodi-0.dtd" xmlns:rdf="http://www.w3.org/1999/02/22-rdf-syntax-ns#" xmlns:inkscape="http://www.inkscape.org/namespaces/inkscape" xmlns:dc="http://purl.org/dc/elements/1.1/" xmlns:cc="http://creativecommons.org/ns#" version="1.1" viewBox="0 0 567 567">
  <defs>
    <style>
      .cls-1 {
        fill: none;
        stroke: #1f3768;
        stroke-miterlimit: 3.9;
        stroke-width: 5.7px;
      }
    </style>
  </defs>
  <sodipodi:namedview id="namedview14" bordercolor="#666666" borderopacity="1" gridtolerance="10" guidetolerance="10" inkscape:current-layer="svg12" inkscape:cx="52.159122" inkscape:cy="283.5" inkscape:pageopacity="0" inkscape:pageshadow="2" inkscape:window-height="1017" inkscape:window-maximized="1" inkscape:window-width="1920" inkscape:window-x="-8" inkscape:window-y="-8" inkscape:zoom="0.91236105" objecttolerance="10" pagecolor="#ffffff" showgrid="false"/>
  <path id="path2" class="cls-1" d="M424.5,271c14.1-8.8,25.9-16.8,33.9-23.1,22.4-17.6,44.7,1,25.2,15.4-31.6,23.3-328.5,157.5-370,168.9-37.5,10.3-49.8-8.5-15.2-12.3,43.9-4.9,164.9-66.1,205.8-86.5"/>
  <path id="path4" class="cls-1" d="M389.5,303.2c7.4,20.6,37.5,16.8,34.8-7.7-10.7-94.8-256.7-146-261.8-217.5"/>
  <path id="path6" class="cls-1" d="M304,333.3c-25.5,11.2-46.9,16-64.1,14.4-8-40.6,12.6-67.9,31.8-69.1-4.4,15.4-75.2,51.9-105.1,24.5-50.1-45.9,39.2-137.9,99.2-112.8-63.5,26-124.9-107.9-117.8-142.4-20.4,8-35.5,25.7-6.1,25.4h233.3"/>
  <path id="path8" class="cls-1" d="M216.3,364.6c-45.2-38.1-110.4-90.8-135.2-118.1-11.9-13.1,5.9-22.8,17.3-6.4,8,11.5,186.9,245,280.7,283.8,20.8,8.6,47.2-7.2,13.3-20.6-36.4-14.3-130.8-98.4-145.9-117,25.4,19.2,39.5,27,39.5,27-17.4-31.4,94.8-105.6,60.4-133.5-13.7-11.1-55.3-39.9-122.6-25-17.3,3.8-20.4,11.7-20.4,11.7,0,0,11.4,2.6,21.2-6.6,6.7-6.3,31.2-31.7,66.8-30.8,49.2,1.3-9.3,68.2,6,89.2,3.4,4.6,18,9,34.5,1.8,23-10,60.6-32.2,60.6-32.2"/>
  <path id="path10" class="cls-1" d="M509.4,112.7l-106,179.2c-5.4-51.2-137.8-50.3-112.6-117.1,4.9-13,17.2-25.9,31.4-29.4,17.1-4.3,31.3,5.3,31.6,21.4.3,15.7-12.6,31.7-29.1,36.5-24.6,7.1-30.4-23.6-15.9-39.1,9.2,2.5,24.1,10.5,32.6,18.6"/>
</svg>