<?xml version="1.0" encoding="UTF-8"?>
<svg id="svg10" xmlns="http://www.w3.org/2000/svg" xmlns:svg="http://www.w3.org/2000/svg" xmlns:sodipodi="http://sodipodi.sourceforge.net/DTD/sodipodi-0.dtd" xmlns:rdf="http://www.w3.org/1999/02/22-rdf-syntax-ns#" xmlns:inkscape="http://www.inkscape.org/namespaces/inkscape" xmlns:dc="http://purl.org/dc/elements/1.1/" xmlns:cc="http://creativecommons.org/ns#" version="1.1" viewBox="0 0 567 567">
  <defs>
    <style>
      .cls-1 {
        fill: none;
        stroke: #1f3768;
        stroke-miterlimit: 3.9;
        stroke-width: 5.7px;
      }
    </style>
  </defs>
  <sodipodi:namedview id="namedview12" bordercolor="#666666" borderopacity="1" gridtolerance="10" guidetolerance="10" inkscape:current-layer="svg10" inkscape:cx="52.159122" inkscape:cy="283.5" inkscape:pageopacity="0" inkscape:pageshadow="2" inkscape:window-height="1017" inkscape:window-maximized="1" inkscape:window-width="1920" inkscape:window-x="-8" inkscape:window-y="-8" inkscape:zoom="0.91236105" objecttolerance="10" pagecolor="#ffffff" showgrid="false"/>
  <path id="path2" class="cls-1" d="M173.1,450.5s24.6-52.2,277.7-55.2"/>
  <path id="path4" class="cls-1" d="M425.6,217.2s-11.6,22.9-28.5,18.4c-36.4-9.6-16.5-83.6,26.9-70.2,24.7,7.6,20.9,44.9,9.4,45.8,0,0-21.9,4.5-48.4-25.2-56.3-63-95.9-5.4-48.3,34-45.9-20.9-49.9-61.3-28.9-63.9"/>
  <path id="path6" class="cls-1" d="M431.8,226.5c26.3,26.3,46.1,140.1,53.6,172.8,7.5,32.8,1.5,42.2,1.5,42.2,2.1-29.1,34.8.7,34.8.7,0,0-99.5-119.2-114.5-190.9h7.3c-34.4,51.4-152.5,130-292,145.8-22.9,26.8-42.3,5.4-55.2,13l-14.1,13.6,18-6.2c10.8-10,19.6-27.8,33.9-28.9,18.6-1.4,25.7-7.7,36.3-15.3,32.2-23,59.3-37.6,87.2-35.6"/>
  <path id="path8" class="cls-1" d="M335.8,225.7c-81.1-10-97.7,64.5-74.8,74.6,18.3,8,18.6-19.5,15.6-23.1-6.3,13.4-47,102.1-63.3,108.7-19.3,7.9-24.3,45-24.3,45-.3,1.3.2,4-1.2,5.3-4.3,3.9-15.1,12.9-15.1,12.9,0,0,7.1-14.4,8.6-16.9,4-6.8,23.9-9.8,38.7-22.8,4.4-3.9,8.1-8.7,10.3-14.8,7.3-20.1,69.4-61,86.6-75.3,30.4-25.4,24.7-68-15.6-67.9"/>
</svg>