<?xml version="1.0" encoding="UTF-8"?>
<svg id="svg14" xmlns="http://www.w3.org/2000/svg" xmlns:svg="http://www.w3.org/2000/svg" xmlns:sodipodi="http://sodipodi.sourceforge.net/DTD/sodipodi-0.dtd" xmlns:rdf="http://www.w3.org/1999/02/22-rdf-syntax-ns#" xmlns:inkscape="http://www.inkscape.org/namespaces/inkscape" xmlns:dc="http://purl.org/dc/elements/1.1/" xmlns:cc="http://creativecommons.org/ns#" version="1.1" viewBox="0 0 567 567">
  <defs>
    <style>
      .cls-1 {
        fill: none;
        stroke: #1f3768;
        stroke-miterlimit: 3.9;
        stroke-width: 5.7px;
      }
    </style>
  </defs>
  <sodipodi:namedview id="namedview16" bordercolor="#666666" borderopacity="1" gridtolerance="10" guidetolerance="10" inkscape:current-layer="svg14" inkscape:cx="110.08595" inkscape:cy="283.5" inkscape:pageopacity="0" inkscape:pageshadow="2" inkscape:window-height="1017" inkscape:window-maximized="1" inkscape:window-width="1920" inkscape:window-x="-8" inkscape:window-y="-8" inkscape:zoom="0.91236105" objecttolerance="10" pagecolor="#ffffff" showgrid="false"/>
  <path id="path2" class="cls-1" d="M140.4,287.7s162.4,154.9,170.7,161.2c8.3,6.3,28.7,8.3,37.6-6,0,0,28.9,30,89.6,5.1-23.8,15.6-68.9,28.8-95.8,4.5-37.8-34.2-77.9-77-172.1-165.5-16.3-16.4-25.8-28.9-13-42.3"/>
  <path id="path4" class="cls-1" d="M339.3,311.9c-3.8-10.5-26.1-29.6-47.6-41.8C212.8,225.1,101.3,125.9,54.4,121.4c11.1-2.5,30.7-8.8,56.9,3.2-2.7,59,163.9,220.1,251.1,278.4,0,0,1.2-17.6-7.5-27-15.5-11.9-58.7-42.1-58.7-42.1-13.6-11.5-18.1,1.7-18.1,1.7"/>
  <path id="path6" class="cls-1" d="M222,215.2c-39-44.3-66.9-80.3-65.8-104.4-25.5-11.7-44.4-5.6-55.2-3.1,45.4,4.3,158.3,94.9,234,139.9,39.5,23.5,54.9,51.5,72.5,63.7,30.7,21.3,56.9,38.7,56.9,38.7,0,0,.3-15.8-8.6-24.4-15.6-10.7-50.7-32.9-59-37.8-6-3.5-10.6-3-13.9-1.3"/>
  <path id="path8" class="cls-1" d="M339.5,249.4c8.6-4.1,25.8-6.6,32.1,5.8,2.9,5.8,6,13.4,8.5,17.8,50.3,7.9,126.3,50.4,132.7,104.7"/>
  <path id="path10" class="cls-1" d="M253.6,340.8c-18.2-18.5-29.2-42-29.2-42,0,0,31.8-9,33.8,10.4,7.7,76.8,94.2,145.4,151.8,136.2,14.3-2.3,24-8.4,27.6-10.9"/>
  <path id="path12" class="cls-1" d="M432.6,401.7c-2.9,31.1,19.3,41.8,28,45.5-10.2-6.8-16.9-18.6-16.9-31.9v-8.3c0-21.1,16.9-38.2,37.7-38.2s37.7,17.1,37.7,38.2v8.3c0,14.5-8.2,29.4-19.2,33.1-18.6,6.2-41.2-2.4-39-34.4,18.1,17,45.8,9.8,49.9,1.7"/>
</svg>