<?xml version="1.0" encoding="UTF-8"?>
<svg id="svg6" xmlns="http://www.w3.org/2000/svg" xmlns:svg="http://www.w3.org/2000/svg" xmlns:sodipodi="http://sodipodi.sourceforge.net/DTD/sodipodi-0.dtd" xmlns:rdf="http://www.w3.org/1999/02/22-rdf-syntax-ns#" xmlns:inkscape="http://www.inkscape.org/namespaces/inkscape" xmlns:dc="http://purl.org/dc/elements/1.1/" xmlns:cc="http://creativecommons.org/ns#" version="1.1" viewBox="0 0 567 567">
  <defs>
    <style>
      .cls-1 {
        fill: none;
        stroke: #1f3768;
        stroke-miterlimit: 3.9;
        stroke-width: 5.7px;
      }
    </style>
  </defs>
  <sodipodi:namedview id="namedview8" bordercolor="#666666" borderopacity="1" gridtolerance="10" guidetolerance="10" inkscape:current-layer="svg6" inkscape:cx="52.159122" inkscape:cy="283.5" inkscape:pageopacity="0" inkscape:pageshadow="2" inkscape:window-height="1017" inkscape:window-maximized="1" inkscape:window-width="1920" inkscape:window-x="-8" inkscape:window-y="-8" inkscape:zoom="0.64513669" objecttolerance="10" pagecolor="#ffffff" showgrid="false"/>
  <path id="path2" class="cls-1" d="M186.1,268.3s-45.8-6.4-68.3,16.4c-22.6,22.7,23.8,106.2,23.8,106.2,0,0,57.9-21.3,90.6-39.7,0,0-106.9,74.5-149.3,84.9-41.2,10.2-42.2,27.4-11.1,39,31.1,11.6,87.7-3.8,101.3-10.9,55.6-29.3,275.6-131.6,327.6-170.1,34.4-25.4,17.5-94.6-10-95.6-15.2-.5-32.6,29.7-70.7,51.2-1.9,1.1-79.1,44.6-79.1,44.6,0,0-63.2-24.8-71.3-53.6,31.4,5.3,32,68.6-49.1,84-47.2,9-69.6-11.3-72.2-14.5,37.4-.9,62.2,43.5,62.2,43.5"/>
  <path id="path4" class="cls-1" d="M262.8,297.6c-16.7-21.7-143.8-52.9-117-111.3,26.7-58.5,253.7-65.8,253.7-65.8l24.6-27.6s-25.6,3.1-63.2,40.7c-19,19-85.2,47.8-131,52.7,18.4-4.4,38.9-21.4,38.9-21.4,6.4,31.6-21.3,70-21.3,70,0,0,16.7-29.1,56-33.4,55.1-6.1,82,54.8,82,54.8l-134.3,83.8s40.5,13.2,46.7-15.9c4.7-22.3-98.8-136.8-98.8-136.8,0,0,47.6-3.3,40-62.2-2.2-16.8-15.7-29.7-32.5-29.7s-33.2,15.4-33.2,34.4,0,3.5.3,5.2c4.9,41.7,30.4,38.6,39.9,38"/>
</svg>